# xmcd
#
# Track frame offsets:
# 150
# 17225
# 35940
# 55478
# 66217
# 75590
# 86827
# 99398
# 115474
# 128241
# 141014
#
# Disc length: 2064 seconds
#
# Revision: 0
# Processed by: cddbd v1.5PL3 Copyright (c) Steve Scherf et al.
# Submitted via: Axialis_AX_CDPlayer 2.6
#
DISCID=9d080e0b
DTITLE=Dave van Ronk - Songs for aging children
DYEAR=1900
DGENRE=
TTITLE0=Duncan and Brady
TTITLE1=Green rocky road
TTITLE2=As you make your bed
TTITLE3=Teddy bear's picnick
TTITLE4=Song for Joni
TTITLE5=Work with me Annie
TTITLE6=River
TTITLE7=My little grass shack
TTITLE8=Sail away
TTITLE9=Candy man
TTITLE10=Last call
EXTD=
EXTT0=
EXTT1=
EXTT2=
EXTT3=
EXTT4=
EXTT5=
EXTT6=
EXTT7=
EXTT8=
EXTT9=
EXTT10=
PLAYORDER=
